<svg width="1080" height="1080" viewBox="0 0 1080 1080" fill="none" xmlns="http://www.w3.org/2000/svg">
<rect width="1080" height="1080" rx="268" fill="#229200"/>
<path d="M872.917 477.667C872.888 472.176 871.504 466.778 868.887 461.952C866.271 457.125 862.502 453.02 857.917 450C833.681 435.008 805.748 427.066 777.25 427.066C748.752 427.066 720.819 435.008 696.583 450C685.835 456.383 675.781 463.867 666.583 472.333C607.048 423.709 533.088 396.164 456.25 394C306.25 394 227.25 518.667 206.25 584.333C204.583 590.67 204.583 597.33 206.25 603.667C227.25 669.333 306.25 794 456.25 794C533.167 791.647 607.135 763.865 666.583 715C675.858 723.47 685.902 731.059 696.583 737.667C720.845 752.586 748.768 760.484 777.25 760.484C805.732 760.484 833.655 752.586 857.917 737.667C862.502 734.647 866.271 730.542 868.887 725.715C871.504 720.888 872.888 715.49 872.917 710C871.451 666.932 854.667 625.799 825.583 594C854.74 562.115 871.53 520.851 872.917 477.667Z" fill="#6BAE00"/>
<path d="M872.917 453.667C872.888 448.176 871.504 442.778 868.887 437.952C866.271 433.125 862.502 429.02 857.917 426C833.681 411.008 805.748 403.066 777.25 403.066C748.752 403.066 720.819 411.008 696.583 426C685.835 432.383 675.781 439.867 666.583 448.333C607.048 399.709 533.088 372.164 456.25 370C306.25 370 227.25 494.667 206.25 560.333C204.583 566.67 204.583 573.33 206.25 579.667C227.25 645.333 306.25 770 456.25 770C533.167 767.647 607.135 739.865 666.583 691C675.858 699.47 685.902 707.059 696.583 713.667C720.845 728.586 748.768 736.484 777.25 736.484C805.732 736.484 833.655 728.586 857.917 713.667C862.502 710.647 866.271 706.542 868.887 701.715C871.504 696.888 872.888 691.49 872.917 686C871.451 642.932 854.667 601.799 825.583 570C854.74 538.115 871.53 496.851 872.917 453.667Z" fill="#558409"/>
<path d="M873.333 423.667C873.305 418.176 871.921 412.778 869.304 407.952C866.687 403.125 862.919 399.02 858.333 396C834.098 381.008 806.164 373.066 777.667 373.066C749.169 373.066 721.235 381.008 697 396C686.252 402.383 676.197 409.867 667 418.333C607.464 369.709 533.505 342.164 456.667 340C306.667 340 227.667 464.667 206.667 530.333C205 536.67 205 543.33 206.667 549.667C227.667 615.333 306.667 740 456.667 740C533.584 737.647 607.552 709.865 667 661C676.275 669.47 686.318 677.059 697 683.667C721.261 698.586 749.185 706.484 777.667 706.484C806.148 706.484 834.072 698.586 858.333 683.667C862.919 680.647 866.687 676.542 869.304 671.715C871.921 666.888 873.305 661.49 873.333 656C871.867 612.932 855.084 571.799 826 540C855.157 508.115 871.946 466.851 873.333 423.667Z" fill="#9DFF00"/>
<rect x="309" y="450" width="28" height="28" rx="14" fill="#558409"/>
<path d="M368 189C403.406 189 434.71 206.514 453.736 233.366C439.456 252.14 431 275.59 431 301V315H424C366.012 315 319 267.988 319 210V189H368Z" fill="#9DFF00"/>
<path d="M585 203V231C585 285.124 541.124 329 487 329H473V343H445V301C445 246.876 488.876 203 543 203H585Z" fill="#9DFF00"/>
</svg>
